{
    "asset" : {
        "generator" : "Khronos glTF Blender I/O v3.4.50",
        "version" : "2.0"
    },
    "scene" : 0,
    "scenes" : [
        {
            "name" : "Scene",
            "nodes" : [
                0,
                1,
                2,
                3,
                4,
                5,
                6,
                7
            ]
        }
    ],
    "nodes" : [
        {
            "mesh" : 0,
            "name" : "card"
        },
        {
            "mesh" : 1,
            "name" : "clip"
        },
        {
            "mesh" : 2,
            "name" : "clamp"
        },
        {
            "mesh" : 3,
            "name" : "Picture1",
            "rotation" : [
                0.7071068286895752,
                0,
                0,
                0.7071068286895752
            ],
            "scale" : [
                0.4701020419597626,
                0.4701020419597626,
                0.4701020419597626
            ],
            "translation" : [
                0.0026189510244876146,
                0.42016398906707764,
                0.015852065756917
            ]
        },
        {
            "mesh" : 4,
            "name" : "Text",
            "rotation" : [
                0.7071068286895752,
                0,
                0,
                0.7071068286895752
            ],
            "scale" : [
                0.06334064155817032,
                0.06334064155817032,
                0.06334064155817032
            ],
            "translation" : [
                -0.28004875779151917,
                0.7864254713058472,
                0
            ]
        },
        {
            "mesh" : 5,
            "name" : "Text.001",
            "rotation" : [
                0.7071068286895752,
                0,
                0,
                0.7071068286895752
            ],
            "scale" : [
                0.03981216624379158,
                0.03981216624379158,
                0.03981216624379158
            ],
            "translation" : [
                -0.18153375387191772,
                0.6626502275466919,
                0.008632032200694084
            ]
        },
        {
            "mesh" : 6,
            "name" : "Text.002",
            "rotation" : [
                0.7071068286895752,
                0,
                0,
                0.7071068286895752
            ],
            "scale" : [
                0.02290581353008747,
                0.02290581353008747,
                0.02290581353008747
            ],
            "translation" : [
                -0.31212306022644043,
                0.11130014061927795,
                0.00863195862621069
            ]
        },
        {
            "mesh" : 7,
            "name" : "bbva_footer_dkt_es",
            "rotation" : [
                0.7071068286895752,
                0,
                0,
                0.7071068286895752
            ],
            "scale" : [
                0.1034035012125969,
                0.1034035012125969,
                0.1034035012125969
            ],
            "translation" : [
                -0.11500358581542969,
                0.923018217086792,
                0.007301474921405315
            ]
        }
    ],
    "materials" : [
        {
            "doubleSided" : true,
            "name" : "base",
            "pbrMetallicRoughness" : {
                "baseColorTexture" : {
                    "index" : 0
                },
                "metallicFactor" : 0,
                "roughnessFactor" : 0.5
            }
        },
        {
            "doubleSided" : true,
            "name" : "metal",
            "pbrMetallicRoughness" : {
                "baseColorFactor" : [
                    0.03638001158833504,
                    0.03638001158833504,
                    0.03638001158833504,
                    1
                ],
                "roughnessFactor" : 0.5
            }
        },
        {
            "alphaMode" : "BLEND",
            "doubleSided" : true,
            "name" : "Picture1",
            "pbrMetallicRoughness" : {
                "baseColorTexture" : {
                    "index" : 1
                },
                "metallicFactor" : 0,
                "roughnessFactor" : 0.5
            }
        },
        {
            "alphaMode" : "BLEND",
            "doubleSided" : true,
            "name" : "bbva_footer_dkt_es",
            "pbrMetallicRoughness" : {
                "baseColorTexture" : {
                    "index" : 2
                },
                "metallicFactor" : 0,
                "roughnessFactor" : 0.5
            }
        }
    ],
    "meshes" : [
        {
            "name" : "card",
            "primitives" : [
                {
                    "attributes" : {
                        "POSITION" : 0,
                        "TEXCOORD_0" : 1,
                        "NORMAL" : 2
                    },
                    "indices" : 3,
                    "material" : 0
                }
            ]
        },
        {
            "name" : "clip",
            "primitives" : [
                {
                    "attributes" : {
                        "POSITION" : 4,
                        "TEXCOORD_0" : 5,
                        "NORMAL" : 6
                    },
                    "indices" : 7,
                    "material" : 1
                }
            ]
        },
        {
            "name" : "clamp",
            "primitives" : [
                {
                    "attributes" : {
                        "POSITION" : 8,
                        "TEXCOORD_0" : 9,
                        "NORMAL" : 10
                    },
                    "indices" : 11,
                    "material" : 1
                }
            ]
        },
        {
            "name" : "Picture1",
            "primitives" : [
                {
                    "attributes" : {
                        "POSITION" : 12,
                        "TEXCOORD_0" : 13,
                        "NORMAL" : 14
                    },
                    "indices" : 15,
                    "material" : 2
                }
            ]
        },
        {
            "name" : "Text",
            "primitives" : [
                {
                    "attributes" : {
                        "POSITION" : 16,
                        "TEXCOORD_0" : 17,
                        "NORMAL" : 18
                    },
                    "indices" : 19
                }
            ]
        },
        {
            "name" : "Text.001",
            "primitives" : [
                {
                    "attributes" : {
                        "POSITION" : 20,
                        "TEXCOORD_0" : 21,
                        "NORMAL" : 22
                    },
                    "indices" : 23
                }
            ]
        },
        {
            "name" : "Text.002",
            "primitives" : [
                {
                    "attributes" : {
                        "POSITION" : 24,
                        "TEXCOORD_0" : 25,
                        "NORMAL" : 26
                    },
                    "indices" : 27
                }
            ]
        },
        {
            "name" : "bbva_footer_dkt_es",
            "primitives" : [
                {
                    "attributes" : {
                        "POSITION" : 28,
                        "TEXCOORD_0" : 29,
                        "NORMAL" : 30
                    },
                    "indices" : 15,
                    "material" : 3
                }
            ]
        }
    ],
    "textures" : [
        {
            "sampler" : 0,
            "source" : 0
        },
        {
            "sampler" : 1,
            "source" : 1
        },
        {
            "sampler" : 1,
            "source" : 2
        }
    ],
    "images" : [
        {
            "bufferView" : 4,
            "mimeType" : "image/jpeg",
            "name" : "VercelCard"
        },
        {
            "bufferView" : 17,
            "mimeType" : "image/png",
            "name" : "Picture1"
        },
        {
            "bufferView" : 33,
            "mimeType" : "image/png",
            "name" : "bbva_footer_dkt_es"
        }
    ],
    "accessors" : [
        {
            "bufferView" : 0,
            "componentType" : 5126,
            "count" : 1659,
            "max" : [
                0.35820895433425903,
                1.0229052305221558,
                0.005398052278906107
            ],
            "min" : [
                -0.35820895433425903,
                0.02290511131286621,
                0.001373126171529293
            ],
            "type" : "VEC3"
        },
        {
            "bufferView" : 1,
            "componentType" : 5126,
            "count" : 1659,
            "type" : "VEC2"
        },
        {
            "bufferView" : 2,
            "componentType" : 5126,
            "count" : 1659,
            "type" : "VEC3"
        },
        {
            "bufferView" : 3,
            "componentType" : 5123,
            "count" : 4107,
            "type" : "SCALAR"
        },
        {
            "bufferView" : 5,
            "componentType" : 5126,
            "count" : 1196,
            "max" : [
                0.06820666044950485,
                1.2293701171875,
                0.03205162659287453
            ],
            "min" : [
                -0.06900214403867722,
                1.1182847023010254,
                -0.031905218958854675
            ],
            "type" : "VEC3"
        },
        {
            "bufferView" : 6,
            "componentType" : 5126,
            "count" : 1196,
            "type" : "VEC2"
        },
        {
            "bufferView" : 7,
            "componentType" : 5126,
            "count" : 1196,
            "type" : "VEC3"
        },
        {
            "bufferView" : 8,
            "componentType" : 5123,
            "count" : 3576,
            "type" : "SCALAR"
        },
        {
            "bufferView" : 9,
            "componentType" : 5126,
            "count" : 1775,
            "max" : [
                0.024095552042126656,
                1.1183339357376099,
                0.04557735472917557
            ],
            "min" : [
                -0.02497350051999092,
                0.9323668479919434,
                -0.044764820486307144
            ],
            "type" : "VEC3"
        },
        {
            "bufferView" : 10,
            "componentType" : 5126,
            "count" : 1775,
            "type" : "VEC2"
        },
        {
            "bufferView" : 11,
            "componentType" : 5126,
            "count" : 1775,
            "type" : "VEC3"
        },
        {
            "bufferView" : 12,
            "componentType" : 5123,
            "count" : 7164,
            "type" : "SCALAR"
        },
        {
            "bufferView" : 13,
            "componentType" : 5126,
            "count" : 4,
            "max" : [
                0.48916810750961304,
                0,
                0.5
            ],
            "min" : [
                -0.48916810750961304,
                0,
                -0.5
            ],
            "type" : "VEC3"
        },
        {
            "bufferView" : 14,
            "componentType" : 5126,
            "count" : 4,
            "type" : "VEC2"
        },
        {
            "bufferView" : 15,
            "componentType" : 5126,
            "count" : 4,
            "type" : "VEC3"
        },
        {
            "bufferView" : 16,
            "componentType" : 5123,
            "count" : 6,
            "type" : "SCALAR"
        },
        {
            "bufferView" : 18,
            "componentType" : 5126,
            "count" : 24027,
            "max" : [
                8.831001281738281,
                0.10999998450279236,
                1.0089999437332153
            ],
            "min" : [
                0.04800000041723251,
                -0.10999998450279236,
                -0.6910000443458557
            ],
            "type" : "VEC3"
        },
        {
            "bufferView" : 19,
            "componentType" : 5126,
            "count" : 24027,
            "type" : "VEC2"
        },
        {
            "bufferView" : 20,
            "componentType" : 5126,
            "count" : 24027,
            "type" : "VEC3"
        },
        {
            "bufferView" : 21,
            "componentType" : 5123,
            "count" : 36192,
            "type" : "SCALAR"
        },
        {
            "bufferView" : 22,
            "componentType" : 5126,
            "count" : 14607,
            "max" : [
                9.8149995803833,
                0.20000000298023224,
                0.009000000543892384
            ],
            "min" : [
                0.04000000283122063,
                0,
                -0.6910000443458557
            ],
            "type" : "VEC3"
        },
        {
            "bufferView" : 23,
            "componentType" : 5126,
            "count" : 14607,
            "type" : "VEC2"
        },
        {
            "bufferView" : 24,
            "componentType" : 5126,
            "count" : 14607,
            "type" : "VEC3"
        },
        {
            "bufferView" : 25,
            "componentType" : 5123,
            "count" : 21888,
            "type" : "SCALAR"
        },
        {
            "bufferView" : 26,
            "componentType" : 5126,
            "count" : 21114,
            "max" : [
                12.454999923706055,
                0.20000000298023224,
                2.009000062942505
            ],
            "min" : [
                0.03400000184774399,
                0,
                -0.6910000443458557
            ],
            "type" : "VEC3"
        },
        {
            "bufferView" : 27,
            "componentType" : 5126,
            "count" : 21114,
            "type" : "VEC2"
        },
        {
            "bufferView" : 28,
            "componentType" : 5126,
            "count" : 21114,
            "type" : "VEC3"
        },
        {
            "bufferView" : 29,
            "componentType" : 5123,
            "count" : 31728,
            "type" : "SCALAR"
        },
        {
            "bufferView" : 30,
            "componentType" : 5126,
            "count" : 4,
            "max" : [
                1.9417177438735962,
                0,
                0.5
            ],
            "min" : [
                -1.9417177438735962,
                0,
                -0.5
            ],
            "type" : "VEC3"
        },
        {
            "bufferView" : 31,
            "componentType" : 5126,
            "count" : 4,
            "type" : "VEC2"
        },
        {
            "bufferView" : 32,
            "componentType" : 5126,
            "count" : 4,
            "type" : "VEC3"
        }
    ],
    "bufferViews" : [
        {
            "buffer" : 0,
            "byteLength" : 19908,
            "byteOffset" : 0,
            "target" : 34962
        },
        {
            "buffer" : 0,
            "byteLength" : 13272,
            "byteOffset" : 19908,
            "target" : 34962
        },
        {
            "buffer" : 0,
            "byteLength" : 19908,
            "byteOffset" : 33180,
            "target" : 34962
        },
        {
            "buffer" : 0,
            "byteLength" : 8214,
            "byteOffset" : 53088,
            "target" : 34963
        },
        {
            "buffer" : 0,
            "byteLength" : 17055,
            "byteOffset" : 61304
        },
        {
            "buffer" : 0,
            "byteLength" : 14352,
            "byteOffset" : 78360,
            "target" : 34962
        },
        {
            "buffer" : 0,
            "byteLength" : 9568,
            "byteOffset" : 92712,
            "target" : 34962
        },
        {
            "buffer" : 0,
            "byteLength" : 14352,
            "byteOffset" : 102280,
            "target" : 34962
        },
        {
            "buffer" : 0,
            "byteLength" : 7152,
            "byteOffset" : 116632,
            "target" : 34963
        },
        {
            "buffer" : 0,
            "byteLength" : 21300,
            "byteOffset" : 123784,
            "target" : 34962
        },
        {
            "buffer" : 0,
            "byteLength" : 14200,
            "byteOffset" : 145084,
            "target" : 34962
        },
        {
            "buffer" : 0,
            "byteLength" : 21300,
            "byteOffset" : 159284,
            "target" : 34962
        },
        {
            "buffer" : 0,
            "byteLength" : 14328,
            "byteOffset" : 180584,
            "target" : 34963
        },
        {
            "buffer" : 0,
            "byteLength" : 48,
            "byteOffset" : 194912,
            "target" : 34962
        },
        {
            "buffer" : 0,
            "byteLength" : 32,
            "byteOffset" : 194960,
            "target" : 34962
        },
        {
            "buffer" : 0,
            "byteLength" : 48,
            "byteOffset" : 194992,
            "target" : 34962
        },
        {
            "buffer" : 0,
            "byteLength" : 12,
            "byteOffset" : 195040,
            "target" : 34963
        },
        {
            "buffer" : 0,
            "byteLength" : 291586,
            "byteOffset" : 195052
        },
        {
            "buffer" : 0,
            "byteLength" : 288324,
            "byteOffset" : 486640,
            "target" : 34962
        },
        {
            "buffer" : 0,
            "byteLength" : 192216,
            "byteOffset" : 774964,
            "target" : 34962
        },
        {
            "buffer" : 0,
            "byteLength" : 288324,
            "byteOffset" : 967180,
            "target" : 34962
        },
        {
            "buffer" : 0,
            "byteLength" : 72384,
            "byteOffset" : 1255504,
            "target" : 34963
        },
        {
            "buffer" : 0,
            "byteLength" : 175284,
            "byteOffset" : 1327888,
            "target" : 34962
        },
        {
            "buffer" : 0,
            "byteLength" : 116856,
            "byteOffset" : 1503172,
            "target" : 34962
        },
        {
            "buffer" : 0,
            "byteLength" : 175284,
            "byteOffset" : 1620028,
            "target" : 34962
        },
        {
            "buffer" : 0,
            "byteLength" : 43776,
            "byteOffset" : 1795312,
            "target" : 34963
        },
        {
            "buffer" : 0,
            "byteLength" : 253368,
            "byteOffset" : 1839088,
            "target" : 34962
        },
        {
            "buffer" : 0,
            "byteLength" : 168912,
            "byteOffset" : 2092456,
            "target" : 34962
        },
        {
            "buffer" : 0,
            "byteLength" : 253368,
            "byteOffset" : 2261368,
            "target" : 34962
        },
        {
            "buffer" : 0,
            "byteLength" : 63456,
            "byteOffset" : 2514736,
            "target" : 34963
        },
        {
            "buffer" : 0,
            "byteLength" : 48,
            "byteOffset" : 2578192,
            "target" : 34962
        },
        {
            "buffer" : 0,
            "byteLength" : 32,
            "byteOffset" : 2578240,
            "target" : 34962
        },
        {
            "buffer" : 0,
            "byteLength" : 48,
            "byteOffset" : 2578272,
            "target" : 34962
        },
        {
            "buffer" : 0,
            "byteLength" : 32278,
            "byteOffset" : 2578320
        }
    ],
    "samplers" : [
        {
            "magFilter" : 9729,
            "minFilter" : 9987
        },
        {
            "magFilter" : 9729,
            "minFilter" : 9987,
            "wrapS" : 33071,
            "wrapT" : 33071
        }
    ],
    "buffers" : [
        {
            "byteLength" : 2610600,
            "uri" : "data:application/octet-stream;base64,"
        }
    ]
}
